/* XPM */
static char * up_xpm[] = {
"64 64 53 1",
" 	c #C0D470",
".	c #BFD370",
"+	c #BDD06E",
"@	c #000000",
"#	c #BED26F",
"$	c #BACD6C",
"%	c #FFFD50",
"&	c #E8EEAA",
"*	c #BCD06E",
"=	c #B7CA6B",
"-	c #FEFC50",
";	c #BDD16E",
">	c #B7CA6A",
",	c #FBF94E",
"'	c #070802",
")	c #BFD36F",
"!	c #BCD06D",
"~	c #FDFB4F",
"{	c #F4F24C",
"]	c #BBCE6D",
"^	c #FAF84E",
"/	c #FBF94F",
"(	c #BED16F",
"_	c #1D210C",
":	c #F7BF27",
"<	c #FBC228",
"[	c #FFC529",
"}	c #FEC429",
"|	c #FDC429",
"1	c #FDC329",
"2	c #FAC128",
"3	c #A4C263",
"4	c #272D13",
"5	c #F6F54D",
"6	c #FCFA4F",
"7	c #1A1E0A",
"8	c #0D0C01",
"9	c #0D1004",
"0	c #C1D570",
"a	c #F9F74E",
"b	c #F7F54D",
"c	c #F4F657",
"d	c #C1D56F",
"e	c #B9CC6C",
"f	c #160E01",
"g	c #FCC328",
"h	c #F9C028",
"i	c #F4BC27",
"j	c #C5D36D",
"k	c #F2BB26",
"l	c #C4D36E",
"m	c #C1D470",
"n	c #C4D16B",
"                                                                ",
"                                                                ",
"                                 .                              ",
"                       +       @@@@       @@@                   ",
"                        @#    @   @@@@@@  @  @                  ",
"                        @@@.    $@%%%%%@@@                      ",
"                  &&  &&@%@@  *@@%%%%%%%%@@                     ",
"                  &&  &&@%%@=@@%%-%%%%%%%%@@.                   ",
"       ;;           && >@@@@@@%%%%,%%%%%%%@'@)                  ",
"       ;;           &&   ).!@%%%%~%%%%%%%%{@@]                  ",
"                           @^%%%%-%%%%%%%%/@(      *            ",
"                           @%%%%%%%%%%%%%%%_  .( @@@(           ",
"                           @%%%%%%%%%%%-%%~@@  ]@:<@#           ",
"                           @%-%%%/%%%%%-%%%@@@@@[}<@#           ",
"                            @%%%%%%%%%%%%%%@[:[[[<@@            ",
"                            @~%%%%%%%%%%%%@[[[[[|@@             ",
"                            +@-%%%%~%%--%%@[[[[1@@              ",
"                             @-%%%%%%%%%%%@@2}@@@               ",
"                              @,%%%%%%%%%%@@@@@;    &&  &&      ",
"                              @%%%%%%%%%%%@ .       &&  &&      ",
"      33  33                  4^%%%%%%%%%%@           &&        ",
"      33  33                   @%%%%%%%%%%@           &&        ",
"        33                    ;@%%%%%%%%%%@                     ",
"        33         @@         ;@%%%%%%%%%5@                     ",
"                   @%@;        @%%%%%%%%-@                      ",
"                   @~%@       #@%%%%%%%%6@                      ",
"                   @%%%@       @%%%%%%%%@@                      ",
"                7@@@6%~@(     $@%%%%%%%-@                       ",
"                @~%^@@%@+#.#  @@%%%%%%%%@                       ",
"                )@8@@@@ *@@@;#@~%%%%%%%-@ .                     ",
"                  99 @@@0@a@@@@%%%%%%%%@@                       ",
"                     @b%@@,%%b@%%%%%%%%@6@                      ",
"                     @@%%a@@@@%%%%%%%%%@%@#                     ",
"                      @a/%%%%%%%%%%-%@@~%@##                    ",
"                      @%%%%%%%%~%%@@@%%%@  .                    ",
"                      @-%%%%/6%%%%@%%%6c@#                      ",
"                      (@~%%%%-%%%%%@%%%@#.                      ",
"                      #@%%%%%-%%%%%@@%%@                        ",
"                       @@%%%%%%%%%@@@@@)                        ",
"                        @-%%%%%%%@@d  ##                        ",
"                        ]@%%%%%%@ $* .                          ",
"                         e@^%%%/@# ..                           ",
"                          @@-,,f@           &&  &&              ",
"                          @@@@@@@;          &&  &&              ",
"                          @1@@@[@)            &&                ",
"                         ;@[@#@[@             &&                ",
"                         #@[@ @[@                               ",
"                         +@[@ @[@                               ",
"                          @g@ @[@                               ",
"                          @h@ @[@)                              ",
"                         +@[@ @i@.                              ",
"                         j@[@ @[@                               ",
"        &&  &&           @@[@ @[k@                              ",
"        &&  &&          l@[[@)@[2@                              ",
"          &&         mn@@@[|@)@1[@@(                            ",
"          &&         @@[[[[|@ @@<|@@@@@                         ",
"                     @[[[[[@@  @[[[[[[@                         ",
"                     @@@@@@@;  @@@@@@@;                         ",
"                                   )                            ",
"                                                  33  33        ",
"                                                  33  33        ",
"                                                    33          ",
"                                                    33          ",
"                                                                "};
