/* XPM */
static char * down_xpm[] = {
"64 64 58 1",
" 	c #C0D470",
".	c #BFD370",
"+	c #BDD06E",
"@	c #000000",
"#	c #BED26F",
"$	c #BACD6C",
"%	c #FFFD50",
"&	c #E8EEAA",
"*	c #BCD06E",
"=	c #B7CA6B",
"-	c #FDFB4F",
";	c #BDD16E",
">	c #B7CA6A",
",	c #FEFC50",
"'	c #070802",
")	c #BFD36F",
"!	c #BCD06D",
"~	c #0D0C01",
"{	c #BBCE6D",
"]	c #FAF84E",
"^	c #BED16F",
"/	c #F7BF27",
"(	c #FBC228",
"_	c #FFC529",
":	c #F8C028",
"<	c #F6BE27",
"[	c #F0BA26",
"}	c #F5BD27",
"|	c #FEC429",
"1	c #FDC429",
"2	c #FDC329",
"3	c #F8F64D",
"4	c #FCFA4F",
"5	c #FAC128",
"6	c #FBF94E",
"7	c #A4C263",
"8	c #272D13",
"9	c #F6F54D",
"0	c #1A1E0A",
"a	c #0D1004",
"b	c #C1D570",
"c	c #F9F74E",
"d	c #F7F54D",
"e	c #FBF94F",
"f	c #F6F44D",
"g	c #F4F657",
"h	c #C1D56F",
"i	c #B9CC6C",
"j	c #EFEE4B",
"k	c #160E01",
"l	c #FCC328",
"m	c #F9C028",
"n	c #F4BC27",
"o	c #F2BB26",
"p	c #CED167",
"q	c #C1D46F",
"r	c #BFD26E",
"s	c #FFC721",
"                                                                ",
"                                                                ",
"                                 .                              ",
"                       +       @@@@       @@@                   ",
"                        @#    @   @@@@@@  @  @                  ",
"                        @@@.    $@%%%%%@@@                      ",
"                  &&  &&@%@@  *@@%%%%%%%%@@                     ",
"                  &&  &&@%%@=@@%%@@-%%%%%%@@.                   ",
"       ;;           && >@@@@@@%,@@@@%%%%%@@'@)                  ",
"       ;;           &&   ).!@%%%@@@@%%%%%~@@@{                  ",
"                           @]%%%%@@%%%%%%%@@^      *            ",
"                           @%%%%%%%%%%%%%%%@  .^ @@@^           ",
"                           @%%%%%%%@@@@@@@@@@  {@/(@#           ",
"                           @%,%%%@@_:<[}(___@@@@_|(@#           ",
"                            @%%%%@__@@@@@(___/___(@@            ",
"                            @-%%%@__</_@@@______1@@             ",
"                            +@,%%@@@@@@@%%@____2@@              ",
"                             @,%%34%%,%%%%@@5|@@@               ",
"                              @6%%%%%%%%%%@@@@@;    &&  &&      ",
"                              @%%%%%%%%%%%@ .       &&  &&      ",
"      77  77                  8]%%%%%%%%%%@           &&        ",
"      77  77                   @%%%%%%%%%%@           &&        ",
"        77                    ;@%%%%%%%%%%@                     ",
"        77         @@         ;@%%%%%%%%%9@                     ",
"                   @%@;        @%%%%%%%%,@                      ",
"                   @-%@       #@%%%%%%%%4@                      ",
"                   @%%%@       @%%%%%%%%@@                      ",
"                0@@@4%-@^     $@%%%%%%%,@                       ",
"                @-%]@@%@+#.#  @@%%%%%%%%@                       ",
"                )@~@@@@ *@@@;#@-%%%%%%%,@ .                     ",
"                  aa @@@b@c@@@@%%%%%%%%@@                       ",
"                     @d%@@6%%d@%%%%%%%%@4@                      ",
"                     @@%%@%%%%%%%%%%%%%@%@#                     ",
"                      @ce@%%%%%%%@%%%%@-%@##                    ",
"                      @%%@4%%%%e@@%%%%@%@  .                    ",
"                      @,%%@@e4f@@%%%%@cg@#                      ",
"                      ^@-%%e@@@6%%%%%@%@#.                      ",
"                      #@%%%%%e%%%%%@@%%@                        ",
"                       @@%%%%%%%%%@@@@@)                        ",
"                        @,%%%%%%%@@h  ##                        ",
"                        {@%%%%%%@ $* .                          ",
"                         i@]%%%e@# ..                           ",
"                          @@,,jk@           &&  &&              ",
"                          @@@@@@@;          &&  &&              ",
"                          @2@@@_@)            &&                ",
"                         ;@_@#@_@             &&                ",
"                         #@_@ @_@                               ",
"                         +@_@ @_@                               ",
"                          @l@ @_@                               ",
"                          @m@ @_@)                              ",
"                         +@_@ @n@.                              ",
"                          @_@ @_@                               ",
"        &&  &&           @@_@ @_o@                              ",
"        &&  &&          p@__@)@_5@                              ",
"          &&         qr@@@_1@)@2_@@^                            ",
"          &&         @@____1@ @@(1@@@@@                         ",
"                     @_____s@  @______@                         ",
"                     @@@@@@@@  @@@@@@@;                         ",
"                                   )                            ",
"                                                  77  77        ",
"                                                  77  77        ",
"                                                    77          ",
"                                                    77          ",
"                                                                "};
