/* XPM */
static char * player_xpm[] = {
"64 64 15 1",
" 	c #C0D470",
".	c #A4C263",
"+	c #E8EEAA",
"@	c #786E06",
"#	c #C2D56F",
"$	c #FFFD50",
"%	c #000000",
"&	c #FFC529",
"*	c #BED16D",
"=	c #C5D76E",
"-	c #EFEC48",
";	c #C3D66F",
">	c #C6D86E",
",	c #C7D86E",
"'	c #C3D36E",
"                                                                ",
"                                                                ",
"                                                                ",
"                                                                ",
"                                    ..  ..                      ",
"                                    ..  ..                      ",
"                  ++  ++              ..                        ",
"                  ++  ++              ..                        ",
"                    ++                                          ",
"                    ++                                          ",
"                                                                ",
"                                                                ",
"                                                                ",
"                                                                ",
"                                                                ",
"                                                                ",
"                                                                ",
"                                                                ",
"                            @@  @@@@@               ++  ++      ",
"                           #@$@@@$%$%@              ++  ++      ",
"      ..  ..               #@@@$$$%$%@                ++        ",
"      ..  ..                 @$$$$@@@@  @@            ++        ",
"        ..                   @$$$@&&&&@@&&@                     ",
"        ..                   @@$$@@@@&&&&@                      ",
"                              @$$$$$$@&&@                       ",
"                              @@$$$$$@@@                        ",
"                               @$$$$$@                          ",
"                          @    @$$$$$@                          ",
"                         *@@   @$$$$$@                          ",
"                        =@@-@  @$$$$$@                          ",
"                        ;@$@@>@@$$$$$@                          ",
"                        #,@@$@@$@$$$@@                          ",
"                           @$$@$$@$$@;                          ",
"                           @$$@@$@$$@                           ",
"                           @$$$$@$$@@                           ",
"                           ;@$$$$@@@                            ",
"                            @@$$@@                              ",
"                             @@@@                               ",
"                      ..  ..@&@&@                               ",
"                      ..  ..@&@&@                               ",
"                        ..  @&@&@                               ",
"                        ..  @&@&@                               ",
"                           @&&@&@@          ++  ++              ",
"                          @@&&@&&@@         ++  ++              ",
"                          @@@@@@@@@           ++                ",
"                                  '           ++                ",
"                                                                ",
"                                                                ",
"                                                                ",
"                                                                ",
"                                                                ",
"                                                                ",
"        ++  ++                                                  ",
"        ++  ++                                                  ",
"          ++                                                    ",
"          ++                                                    ",
"                                                                ",
"                                                                ",
"                                                                ",
"                                                  ..  ..        ",
"                                                  ..  ..        ",
"                                                    ..          ",
"                                                    ..          ",
"                                                                "};
