/* XPM */
static char * wall_xpm[] = {
"64 64 12 1",
" 	c #C0D470",
".	c #5F7A79",
"+	c #97BB8E",
"@	c #AED499",
"#	c #C2E09A",
"$	c #6E967C",
"%	c #90625D",
"&	c #AA7959",
"*	c #B68962",
"=	c #E8EEAA",
"-	c #C49A6C",
";	c #A4C263",
"                       ...................                      ",
"                       ...................                      ",
"                   ....++@@@@@@@@@@@@@++++..                    ",
"                   ....++@@@@@@@@@@@@@++++..                    ",
"              .....++@@@@@@#######@@####@@++....                ",
"              .....++@@@@@@#######@@####@@++....                ",
"            ..+++@@@@@@@@@@#######@@####@@@@++++...             ",
"            ..+++@@@@@@@@@@#######@@####@@@@++++...             ",
"            ..+++@@@@@@@@@@#######@@####@@@@++++...             ",
"          ..++@@@######@@######@@@@@@@@@@@@@@@@@+++..           ",
"          ..++@@@######@@######@@@@@@@@@@@@@@@@@+++..           ",
"        ..++++@@@############@@@@@@@######@@@@@@+++++..         ",
"        ..++++@@@############@@@@@@@######@@@@@@+++++..         ",
"        ..@@@@@@@@@@@####@@@@@@@@@@@############+++++..         ",
"        ..@@@@@@@@@@@####@@@@@@@@@@@############+++++..         ",
"      ..++@@@@@@@@@@@@@@@@@@@@@@@@@@@@@@@@######@@@@@++..       ",
"      ..++@@@@@@@@@@@@@@@@@@@@@@@@@@@@@@@@######@@@@@++..       ",
"      ..++@@@@@@@@@@@@@@@@@@@@@@@@@@@@@@@@@@@@@@@@@@@++..       ",
"      ..++@@@@@@@@@@@@@@@@@@@@@@@@@@@@@@@@@@@@@@@@@@@++..       ",
"      ..++++++@@@@@@@++++@@@@@@@@@@@@@++++++@@@@+++++++..       ",
"      ..++++++@@@@@@@++++@@@@@@@@@@@@@++++++@@@@+++++++..       ",
"      ..++++++@@@@@@@++++@@@@@@@@@@@@@++++++@@@@+++++..         ",
"      ..++++++@@@@@@@++++@@@@@@@@@@@@@++++++@@@@+++++..         ",
"      ..+++++++++++++++++++++++@@@@@++@@@@@@+++++++++..         ",
"      ..+++++++++++++++++++++++@@@@@++@@@@@@+++++++++..         ",
"      ..+++++++++++++++++++++++@@@@@++@@@@@@+++++++++..         ",
"        ..+++++++@@@@@@++++++++++++++++++++++++++++++++..       ",
"        ..+++++++@@@@@@++++++++++++++++++++++++++++++++..       ",
"        ..+++++++++++++++++++++++++++++++++++++++++++++..       ",
"        ..+++++++++++++++++++++++++++++++++++++++++++++..       ",
"      ..$$+++++++++++++++++++++++++++++++++++++++++++$$..       ",
"      ..$$+++++++++++++++++++++++++++++++++++++++++++$$..       ",
"      ..$$$$$$+++$$$$++++$$$$$$+++++++++++$$$$$$$$$$$$$..       ",
"      ..$$$$$$+++$$$$++++$$$$$$+++++++++++$$$$$$$$$$$$$..       ",
"      ..$$$$$$+++$$$$++++$$$$$$+++++++++++$$$$$$$$$$$$$..       ",
"      ..$$$$$$+++$$$$++++$$$$$$+++++++++++$$$$$$$$$$$$$..       ",
"      ..$$$$$$$$$$$$$$$$$+++++++++++$$$$$$++++++$$$$$..         ",
"      ..$$$$$$$$$$$$$$$$$+++++++++++$$$$$$++++++$$$$$..         ",
"        ..$$$$+++++++$$$$$$$$$$$$$$$$$$$$$$$$$$$$$$$$..         ",
"        ..$$$$+++++++$$$$$$$$$$$$$$$$$$$$$$$$$$$$$$$$..         ",
"        ..$$$$+++++++$$$$$$$$$$$$$$$$$$$$$$$$$$$$$$$$..         ",
"        ..$$$$$$$$$$$$$$$$$$$$$$$$$$$$$$$$$$$$$$$$$$$..         ",
"        ..$$$$$$$$$$$$$$$$$$$$$$$$$$$$$$$$$$$$$$$$$$$..         ",
"          ..$$$$$$$$$$$$$$$$$$$$$$$$$$$$$$$$$$$$$$$..           ",
"          ..$$$$$$$$$$$$$$$$$$$$$$$$$$$$$$$$$$$$$$$..           ",
"            .....$$$$$$$$$$$$$$$$$$$$$$$$$$$.......             ",
"            .....$$$$$$$$$$$$$$$$$$$$$$$$$$$.......             ",
"                 ...........................                    ",
"                 ...........................                    ",
"                       %%&&&&&&&&&&&&&%%                        ",
"                       %%&&&&&&&&&&&&&%%                        ",
"                       %%**&&&&&&&&&**%%                        ",
"        ==  ==         %%**&&&&&&&&&**%%                        ",
"        ==  ==         %%*************%%                        ",
"          ==           %%*************%%                        ",
"          ==           %%**--**-------%%                        ",
"                       %%**--**-------%%                        ",
"                       %%**--**-------%%                        ",
"                     %%-----------------%%                      ",
"                     %%-----------------%%        ;;  ;;        ",
"                       -----------------          ;;  ;;        ",
"                       -----------------            ;;          ",
"                             -----                  ;;          ",
"                             -----                              "};
