/* XPM */
static char * house_xpm[] = {
"64 64 15 1",
" 	c #C0D470",
".	c #90625D",
"+	c #DCB98A",
"@	c #78A158",
"#	c #A4C263",
"$	c #8DB15D",
"%	c #C49A6C",
"&	c #67835C",
"*	c #AA7959",
"=	c #E8CFA6",
"-	c #F3E5C2",
";	c #B68962",
">	c #754C60",
",	c #6B4B5B",
"'	c #E8EEAA",
"                            ........                            ",
"                        ....++++++++....                        ",
"                        ....++++++++....                        ",
"                    ....++++++++++++++++....                    ",
"                ....++++++++@@@@@@@@++++++++....                ",
"            ....++++++++@@@@ ###### @@@@++++++++....            ",
"            ....++++++++@@@@ ###### @@@@++++++++....            ",
"        ....++++++++@@@@#$$@ ###### @$$#@@@@++++++++....        ",
"       .++++++++@@@@@   #$$@#$$$$$$#@$$#   @@@@@++++++++.       ",
"       .++++@@@@###$@   #$$@ ###### @$$#   @$###@@@@++++.       ",
"       .++++@@@@###$@   #$$@ ###### @$$#   @$###@@@@++++.       ",
"       .%@@@$@@  ##$@####$$@ ###### @$$####@$##  @@$@@@%.       ",
"        .&&#$@@  ##$@   #$$@#$$$$$$#@$$#   @$##  @@$#&&.        ",
"         &&#$@@####$@   #$$@ ###### @$$#   @$####@@$#&&         ",
"         &&#$@@####$@   #$$@ ###### @$$#   @$####@@$#&&         ",
"         &&#$@@  ##$@####$$@ ###### @$$####@$##  @@$#&&         ",
"         &&#$@@  ##$@   #$$@********@$$#   @$##  @@$#&&         ",
"         &&#$@@####$@   ****========****   @$####@@$#&&         ",
"         &&#$@@####$@   ****========****   @$####@@$#&&         ",
" ##  ##  &&#$@@  ##$****====--------====****$##  @@$#&&         ",
" ##  ##  &&#$@@ ****====----++++++++----====**** @@$#&&         ",
"   ##    &&#****====----++++++++++++++++----====****#&&         ",
"   ##    &&#****====----++++++++++++++++----====****#&&         ",
"        ****====----++++++++........++++++++----====****        ",
"       *====----++++++++................++++++++----====*       ",
"       *----++++++++........................++++++++----*       ",
"       *----++++++++........................++++++++----*       ",
"       .++++++++................................++++++++.       ",
"       .++++....********************************....++++.       ",
"        ....;%%%%%%%%%%%%%%%%%%%%%%%%%%%%%%%%%%%%%%;....        ",
"        ....;%%%%%%%%%%%%%%%%%%%%%%%%%%%%%%%%%%%%%%;....        ",
"           >%%%%%%%%%%%%%%%%%%%%%%%%%%%%%%%%%%%%%%%%,           ",
"           >****************************************>           ",
"           >%%%%%%%%%%%%%%%%%%%%%%%%%%%%%%%%%%%%%%%%>     ''  ''",
"           >%%%%%%%%%%%%%%%%%%%%%%%%%%%%%%%%%%%%%%%%>     ''  ''",
"           >%%%%%%%%%%%%%%%%%%%%%%%%%%%%%%%%%%%%%%%%>       ''  ",
"           >%%%%>>>>%%%%%%%%%%%%%%%%%%%%%%%%>>>>%%%%>       ''  ",
"           >***>....>*******>>>>>>>>*******>....>***>           ",
"           >***>....>*******>>>>>>>>*******>....>***>           ",
"           >%%%>....>%%%%%%>........>%%%%%%>....>%%%>           ",
"           >%%%>....>%%%%>>..........>>%%%%>....>%%%>           ",
"           >%%%>%%%%>%%%%>>..........>>%%%%>%%%%>%%%>           ",
"           >%%%>%%%%>%%%%>>..........>>%%%%>%%%%>%%%>           ",
"           >****++++*****>>..........>>*****++++****>           ",
"           >%%%%%%%%%%%%%>>..........>>%%%%%%%%%%%%%>           ",
"           >%%%%%%%%%%%%%>>..........>>%%%%%%%%%%%%%>           ",
"           >%%%%%%%%%%%%%>>..........>>%%%%%%%%%%%%%>           ",
"           >%%%%%%%%%%%%%>>.********.>>%%%%%%%%%%%%%>           ",
"            >>>>>>>>>>>>>>>*%%%%%%%%*>>>>>>>>>>>>>>>            ",
"               >;;;>       .%;;;;;;%.       >;;;>               ",
"               >;;;>       .%;;;;;;%.       >;;;>               ",
"               >%%%>       .%%%%%%%%.       >%%%>               ",
"        ''  '' >%%%>       .%;;;;;;%.       >%%%>               ",
"        ''  '' >%%%>       .%%%%%%%%.       >%%%>               ",
"          ''   >%%%>       .%%%%%%%%.       >%%%>               ",
"          ''   >%%%>       .%;;;;;;%.       >%%%>               ",
"               >%%%>       .%%%%%%%%.       >%%%>               ",
"                >>>        .%;;;;;;%.        >>>      ##  ##    ",
"                >>>        .%;;;;;;%.        >>>      ##  ##    ",
"                           .%%%%%%%%.                   ##      ",
"                           .%;;;;;;%.                   ##      ",
"                           .%%%%%%%%.                           ",
"                           .%%%%%%%%.                           ",
"                            ........                            "};
