/* XPM */
static char * egg_xpm[] = {
"64 64 9 1",
" 	c #C0D470",
".	c #A4C263",
"+	c #E8EEAA",
"@	c #F3F4E7",
"#	c #AA7959",
"$	c #F3F2C0",
"%	c #90625D",
"&	c #F3E5C2",
"*	c #E8CFA6",
"                                                                ",
"                                                                ",
"                                                                ",
"                                                                ",
"                                    ..  ..                      ",
"                                    ..  ..                      ",
"                  ++  ++              ..                        ",
"                  ++  ++              ..                        ",
"                    ++                                          ",
"                    ++                                          ",
"                                                                ",
"                                                                ",
"                                                                ",
"                                                                ",
"                                                                ",
"                                                                ",
"                                                                ",
"                                                                ",
"                                                    ++  ++      ",
"                                                    ++  ++      ",
"      ..  ..                                          ++        ",
"      ..  ..                                          ++        ",
"        ..                                                      ",
"        ..                                                      ",
"                             @@@@@                              ",
"                            @#####                              ",
"                           @#$$$$$@@                            ",
"                          @#$$$@$$%%@                           ",
"                         @#$$@@&$$**%@                          ",
"                         @#$@@@$$$**%@                          ",
"                         @#$@@@$$$**%@                          ",
"                        @%$$$$$$$$***%@                         ",
"                        @%$$$$$$$$***%@                         ",
"                        @%$$$$$$$$***%@                         ",
"                        @%$$$$$******%@                         ",
"                        @%$$$$$******%@                         ",
"                         @%$$$$*****%@                          ",
"                          @%%%%%%%%%@                           ",
"                           @@@@@@@@@                            ",
"                                                                ",
"                                                                ",
"                                                                ",
"                                            ++  ++              ",
"                                            ++  ++              ",
"                                              ++                ",
"                                              ++                ",
"                                                                ",
"                                                                ",
"                                                                ",
"                                                                ",
"                                                                ",
"                                                                ",
"        ++  ++                                                  ",
"        ++  ++                                                  ",
"          ++                                                    ",
"          ++                                                    ",
"                                                                ",
"                                                                ",
"                                                                ",
"                                                  ..  ..        ",
"                                                  ..  ..        ",
"                                                    ..          ",
"                                                    ..          ",
"                                                                "};
