/* XPM */
static char * left_xpm[] = {
"64 64 58 1",
" 	c #C0D470",
".	c #BFD370",
"+	c #000000",
"@	c #BDD06E",
"#	c #BED26F",
"$	c #FFFD50",
"%	c #BACD6C",
"&	c #BCD06E",
"*	c #FDFB4F",
"=	c #B7CA6B",
"-	c #BFD36F",
";	c #070802",
">	c #FEFC50",
",	c #B7CA6A",
"'	c #BDD16E",
")	c #BBCE6D",
"!	c #0D0C01",
"~	c #BCD06D",
"{	c #BED16F",
"]	c #FAF84E",
"^	c #FBC228",
"/	c #F7BF27",
"(	c #FEC429",
"_	c #FFC529",
":	c #F5BD27",
"<	c #F0BA26",
"[	c #F6BE27",
"}	c #F8C028",
"|	c #FDC429",
"1	c #FDC329",
"2	c #FAC128",
"3	c #FCFA4F",
"4	c #F8F64D",
"5	c #FBF94E",
"6	c #E8EEAA",
"7	c #A4C263",
"8	c #272D13",
"9	c #F6F54D",
"0	c #1A1E0A",
"a	c #F9F74E",
"b	c #C1D570",
"c	c #0D1004",
"d	c #F7F54D",
"e	c #FBF94F",
"f	c #F4F657",
"g	c #F6F44D",
"h	c #C1D56F",
"i	c #B9CC6C",
"j	c #160E01",
"k	c #EFEE4B",
"l	c #FCC328",
"m	c #F9C028",
"n	c #F4BC27",
"o	c #F2BB26",
"p	c #CED167",
"q	c #BFD26E",
"r	c #C1D46F",
"s	c #FFC721",
"                                                                ",
"                                                                ",
"                              .                                 ",
"                   +++       ++++       @                       ",
"                  +  +  ++++++   +    #+                        ",
"                      +++$$$$$+%    .+++                        ",
"                     ++$$$$$$$$++&  ++$+                        ",
"                   .++$$$$$$*++$$++=+$$+                        ",
"                  -+;++$$$$$++++>$++++++,              ''       ",
"                  )+++!$$$$$++++$$$+~.-                ''       ",
"            &      {++$$$$$$$++$$$$]+                           ",
"           {+++ {.  +$$$$$$$$$$$$$$$+                           ",
"           #+^/+)  ++++++++++$$$$$$$+                           ",
"           #+^(_++++___^:<[}_++$$$>$+                           ",
"            ++^___/___^+++++__+$$$$+                            ",
"             ++|______+++_/[__+$$$*+                            ",
"              ++1____+$$+++++++$$>+@                            ",
"               +++(2++$$$$>$$34$$>+                             ",
"                '+++++$$$$$$$$$$5+                  66  66      ",
"                   . +$$$$$$$$$$$+                  66  66      ",
"      77  77         +$$$$$$$$$$]8                    66        ",
"      77  77         +$$$$$$$$$$+                     66        ",
"        77           +$$$$$$$$$$+'                              ",
"        77           +9$$$$$$$$$+'         ++                   ",
"                      +>$$$$$$$$+        '+$+                   ",
"                      +3$$$$$$$$+#       +$*+                   ",
"                      ++$$$$$$$$+       +$$$+                   ",
"                       +>$$$$$$$+%     {+*$3+++0                ",
"                       +$$$$$$$$++  #.#@+$++]$*+                ",
"                     . +>$$$$$$$*+#'+++& ++++!+-                ",
"                       ++$$$$$$$$++++a+b+++ cc                  ",
"                      +3+$$$$$$$$+d$$5++$d+                     ",
"                     #+$+$$$$$$$$$$$$$+$$++                     ",
"                    ##+$*+$$$$+$$$$$$$+ea+                      ",
"                    .  +$+$$$$++e$$$$3+$$+                      ",
"                      #+fa+$$$$++g3e++$$>+                      ",
"                      .#+$+$$$$$5+++e$$*+{                      ",
"                        +$$++$$$$$e$$$$$+#                      ",
"                        -+++++$$$$$$$$$++                       ",
"                        ##  h++$$$$$$$>+                        ",
"                          . &% +$$$$$$+)                        ",
"                           .. #+e$$$]+i                         ",
"                               +jk>>++      66  66              ",
"                              '+++++++      66  66              ",
"                              -+_+++1+        66                ",
"                               +_+#+_+'       66                ",
"                               +_+ +_+#                         ",
"                               +_+ +_+@                         ",
"                               +_+ +l+                          ",
"                              -+_+ +m+                          ",
"                              .+n+ +_+@                         ",
"                               +_+ +_+                          ",
"        66  66                +o_+ +_++                         ",
"        66  66                +2_+-+__+p                        ",
"          66                {++_1+-+|_+++qr                     ",
"          66             +++++|^++ +|____++                     ",
"                         +______+  +s_____+                     ",
"                         '+++++++  ++++++++                     ",
"                            -                                   ",
"                                                  77  77        ",
"                                                  77  77        ",
"                                                    77          ",
"                                                    77          ",
"                                                                "};
